<svg width="23" height="19" viewBox="0 0 23 19" fill="none" xmlns="http://www.w3.org/2000/svg">
<path fill-rule="evenodd" clip-rule="evenodd" d="M19.0391 0.355469H3.03906C1.38712 0.355469 0.0490622 1.70282 0.0490622 3.35547L0.0390625 15.3546C0.0390625 17.0078 1.38678 18.3555 3.03906 18.3555H19.0391C20.6913 18.3555 22.0391 17.0078 22.0391 15.3555V3.35547C22.0391 1.70318 20.6913 0.355469 19.0391 0.355469ZM4.52312 6.35562C4.05007 6.07059 3.89765 5.45605 4.18267 4.983C4.4677 4.50994 5.08224 4.35752 5.5553 4.64254L11.0098 7.929L16.7023 4.49908C17.1754 4.21405 17.7907 4.36786 18.0758 4.84091C18.3601 5.31289 18.21 5.92735 17.7389 6.21324L11.049 10.2735L11.0428 10.2839L4.52312 6.35562Z" fill="#C2D1D9"/>
</svg>
