<svg width="19" height="19" viewBox="0 0 19 19" fill="none" xmlns="http://www.w3.org/2000/svg">
<path fill-rule="evenodd" clip-rule="evenodd" d="M3.73328 8.14547C5.17328 10.9755 7.49328 13.2855 10.3233 14.7355L12.5233 12.5355C12.7933 12.2655 13.1933 12.1755 13.5433 12.2955C14.6633 12.6655 15.8733 12.8655 17.1133 12.8655C17.6633 12.8655 18.1133 13.3155 18.1133 13.8655V17.3555C18.1133 17.9055 17.6633 18.3555 17.1133 18.3555C7.72328 18.3555 0.113281 10.7455 0.113281 1.35547C0.113281 0.805469 0.563281 0.355469 1.11328 0.355469H4.61328C5.16328 0.355469 5.61328 0.805469 5.61328 1.35547C5.61328 2.60547 5.81328 3.80547 6.18328 4.92547C6.29328 5.27547 6.21328 5.66547 5.93328 5.94547L3.73328 8.14547V8.14547Z" fill="#C2D1D9"/>
</svg>
